<svg width="26" height="22" viewBox="0 0 26 22" fill="none" xmlns="http://www.w3.org/2000/svg">
<path d="M18.3012 10.9629C21.6383 10.9629 24.3467 8.55698 24.3467 5.59254C24.3467 2.62809 21.6383 0.222168 18.3012 0.222168C14.9641 0.222168 12.2558 2.62809 12.2558 5.59254C12.2558 8.55698 14.9641 10.9629 18.3012 10.9629ZM24.8908 16.9777C24.4192 16.5481 23.8268 16.3333 23.1376 16.3333H14.6739L12.159 15.5492L12.558 14.5396L14.6739 15.2592H18.0594C18.4826 15.2592 18.8211 15.1088 19.0992 14.8618C19.3773 14.6148 19.5103 14.314 19.5103 13.9811C19.5103 13.4011 19.1959 13.0037 18.5672 12.7781L9.77712 9.88884H7.4194V19.5555L15.883 21.7037L25.592 18.4814C25.6041 17.9122 25.3623 17.4074 24.8908 16.9777ZM5.00122 9.88884H0.145508V21.7037H5.00122V9.88884Z" fill="#D9D9D9"/>
</svg>
